<svg width="100" height="99" viewBox="0 0 100 99" fill="none" xmlns="http://www.w3.org/2000/svg">
<path d="M75.7105 28.7376C76.8606 27.5916 78.7252 27.5916 79.8753 28.7376L99.1375 47.9317C100.288 49.0777 100.288 50.9358 99.1375 52.0818L79.8753 71.2758C78.7252 72.4219 76.8606 72.4219 75.7105 71.2758L56.4484 52.0818C55.2983 50.9358 55.2983 49.0777 56.4484 47.9317L75.7105 28.7376Z" fill="#1E98F5"/>
<path d="M48.4698 55.5153C49.6199 54.3693 51.4845 54.3693 52.6346 55.5153L71.8967 74.7094C73.0468 75.8554 73.0468 77.7135 71.8967 78.8595L52.6346 98.0535C51.4845 99.1995 49.6199 99.1995 48.4698 98.0535L29.2077 78.8595C28.0576 77.7135 28.0576 75.8554 29.2077 74.7094L48.4698 55.5153Z" fill="#68707C"/>
<path d="M20.1247 28.7376C21.2748 27.5916 23.1394 27.5916 24.2895 28.7376L43.5516 47.9317C44.7017 49.0777 44.7017 50.9358 43.5516 52.0818L24.2895 71.2758C23.1394 72.4219 21.2748 72.4219 20.1247 71.2758L0.862555 52.0818C-0.287518 50.9358 -0.287518 49.0777 0.862555 47.9317L20.1247 28.7376Z" fill="#E5AA20"/>
<path d="M47.7124 0.859507C48.8624 -0.286502 50.7271 -0.286502 51.8772 0.859507L71.1393 20.0536C72.2894 21.1996 72.2894 23.0576 71.1393 24.2036L51.8772 43.3977C50.7271 44.5437 48.8624 44.5437 47.7124 43.3977L28.4503 24.2036C27.3002 23.0576 27.3002 21.1996 28.4503 20.0536L47.7124 0.859507Z" fill="#F45F63"/>
</svg>
