<svg width="49" height="49" viewBox="0 0 49 49" fill="none" xmlns="http://www.w3.org/2000/svg">
<path d="M30.3957 6.01899C30.3957 9.34569 27.7029 12.0394 24.3795 12.0394C21.0561 12.0394 18.3676 9.34715 18.3676 6.01899C18.3676 2.69083 21.0574 0 24.3781 0C27.6988 0 30.3942 2.69376 30.3942 6.01899H30.3957Z" fill="#6CACE4"/>
<path d="M30.3957 24.3856C30.3957 27.7064 27.7029 30.4017 24.3795 30.4017C21.0561 30.4017 18.3676 27.7064 18.3676 24.3856C18.3676 21.0648 21.0574 18.3625 24.3795 18.3625C27.7017 18.3625 30.3957 21.0577 30.3957 24.3856Z" fill="#6CACE4"/>
<path d="M12.0298 24.3856C12.0298 27.7064 9.33853 30.4017 6.0149 30.4017C2.69127 30.4017 0 27.7064 0 24.3856C0 21.0648 2.6942 18.3625 6.0149 18.3625C9.3356 18.3625 12.0298 21.0577 12.0298 24.3856Z" fill="#003087"/>
<path d="M48.7725 24.3856C48.7725 27.7064 46.0783 30.4017 42.7576 30.4017C39.4369 30.4017 36.7427 27.7064 36.7427 24.3856C36.7427 21.0648 39.4354 18.3625 42.7576 18.3625C46.0797 18.3625 48.7725 21.0577 48.7725 24.3856Z" fill="#6CACE4"/>
<path d="M30.3957 42.7839C30.3957 46.1077 27.7029 48.8 24.3795 48.8C21.0561 48.8 18.3676 46.1062 18.3676 42.7839C18.3676 39.4616 21.0574 36.7593 24.3795 36.7593C27.7017 36.7593 30.3957 39.4587 30.3957 42.7839Z" fill="#6CACE4"/>
</svg>
