<svg width="17" height="16" viewBox="0 0 17 16" fill="none" xmlns="http://www.w3.org/2000/svg">
<mask id="mask0_2080_4070" style="mask-type:alpha" maskUnits="userSpaceOnUse" x="0" y="0" width="17" height="16">
<rect x="0.5" width="16" height="16" fill="#D9D9D9"/>
</mask>
<g mask="url(#mask0_2080_4070)">
<path d="M3.16732 11.3333V3.33333H1.83398V2H4.50065V10H14.5007V11.3333H3.16732ZM4.50065 14.6667C4.13398 14.6667 3.8201 14.5361 3.55898 14.275C3.29787 14.0139 3.16732 13.7 3.16732 13.3333C3.16732 12.9667 3.29787 12.6528 3.55898 12.3917C3.8201 12.1306 4.13398 12 4.50065 12C4.86732 12 5.18121 12.1306 5.44232 12.3917C5.70343 12.6528 5.83398 12.9667 5.83398 13.3333C5.83398 13.7 5.70343 14.0139 5.44232 14.275C5.18121 14.5361 4.86732 14.6667 4.50065 14.6667ZM5.16732 9.33333V5.33333H9.16732V9.33333H5.16732ZM6.50065 8H7.83398V6.66667H6.50065V8ZM9.83398 9.33333V5.33333H13.834V9.33333H9.83398ZM11.1673 8H12.5007V6.66667H11.1673V8ZM13.1673 14.6667C12.8007 14.6667 12.4868 14.5361 12.2257 14.275C11.9645 14.0139 11.834 13.7 11.834 13.3333C11.834 12.9667 11.9645 12.6528 12.2257 12.3917C12.4868 12.1306 12.8007 12 13.1673 12C13.534 12 13.8479 12.1306 14.109 12.3917C14.3701 12.6528 14.5007 12.9667 14.5007 13.3333C14.5007 13.7 14.3701 14.0139 14.109 14.275C13.8479 14.5361 13.534 14.6667 13.1673 14.6667Z" fill="#4C6554"/>
</g>
</svg>
